<svg width="48" height="48" viewBox="0 0 48 48" fill="none" xmlns="http://www.w3.org/2000/svg">
<path d="M22.237 28.2643C22.2566 28.1039 22.2421 27.9411 22.1945 27.7866C22.1469 27.6321 22.0673 27.4895 21.9608 27.368C21.8544 27.2465 21.7236 27.1489 21.577 27.0816C21.4303 27.0143 21.2711 26.9788 21.1098 26.9774H14.1375C13.9489 26.9753 13.7638 26.9269 13.5983 26.8362C13.4329 26.7456 13.2922 26.6155 13.1887 26.4576C13.0852 26.2996 13.0221 26.1185 13.0048 25.9303C12.9876 25.7422 13.0168 25.5526 13.0898 25.3784L21.9689 4.58673C22.0531 4.37746 22.1974 4.19798 22.3835 4.07105C22.5696 3.94412 22.7892 3.87546 23.0143 3.87378H33.2819C34.0841 3.87378 34.6318 4.69378 34.3387 5.45456L29.2821 18.4653C29.2127 18.6391 29.1866 18.8273 29.206 19.0136C29.2255 19.1998 29.2899 19.3785 29.3938 19.5342C29.4976 19.6899 29.6377 19.8178 29.802 19.907C29.9663 19.9962 30.1498 20.0439 30.3366 20.0461H36.8635C37.7999 20.0461 38.3339 21.1371 37.768 21.8979L20.7917 44.7806C20.6508 44.9696 20.3576 44.8489 20.3826 44.6166L22.237 28.2643Z" stroke="#0F8FC9" stroke-width="1.5" stroke-linecap="round" stroke-linejoin="round"/>
</svg>
